<?xml version="1.0" encoding="iso-8859-1"?><!-- Generator: Adobe Illustrator 19.2.1, SVG Export Plug-In . SVG Version: 6.00 Build 0)  --><svg xmlns="http://www.w3.org/2000/svg" xmlns:xlink="http://www.w3.org/1999/xlink" version="1.1" id="Layer_1" x="0px" y="0px" viewBox="0 0 80 80" style="enable-background:new 0 0 80 80;" xml:space="preserve" width="80" height="80">
<g>
	<path style="fill:#C2E8FF;" d="M4.5,77.5v-5.099c0-15.797,23.282-21.596,24.558-21.901h21.885   C52.218,50.805,75.5,56.612,75.5,72.401V77.5H4.5z"/>
	<g>
		<path style="fill:#7496C4;" d="M50.883,51C52.61,51.421,75,57.183,75,72.401V77H5v-4.599C5,57.183,27.39,51.421,29.117,51H50.883     M51,50H29c0,0-25,5.655-25,22.401c0,0,0,2.408,0,5.599h72c0-3.191,0-5.599,0-5.599C76,55.655,51,50,51,50L51,50z"/>
	</g>
</g>
<g>
	<path style="fill:#FFEEA3;" d="M40,41.5c-10.752,0-19.5-8.748-19.5-19.5S29.248,2.5,40,2.5S59.5,11.248,59.5,22   S50.752,41.5,40,41.5z"/>
	<path style="fill:#BA9B48;" d="M40,3c10.477,0,19,8.523,19,19c0,10.477-8.523,19-19,19s-19-8.523-19-19C21,11.523,29.523,3,40,3    M40,2c-11.046,0-20,8.954-20,20c0,11.046,8.954,20,20,20s20-8.954,20-20C60,10.954,51.046,2,40,2L40,2z"/>
</g>
</svg>